# xmcd
#
# Track frame offsets:
#	150
#	12985
#	29782
#	49670
#	68967
#	84400
#	97795
#	115422
#	132405
#	150247
#	162150
#	181535
#	200707
#	217497
#	233110
#	249450
#	263405
#	278482
#	294650
#	308872
#	321800
#
# Disc length: 4518
#
# Revision: 1
# Processed by: cddbd v1.5.1PL0 Copyright (c) Steve Scherf et al.
# Submitted via: VisiTrax 2.9.5.180 - For more info visit www.synapsa.com
# Normalized: r0:DSETVAR1
#
DISCID=2511a415
DTITLE=Various Artist - CDX 143 September 1996
DYEAR=1996
DGENRE=
TTITLE0=JOhn Michael Montgomery - Ain't got nothin' on us
TTITLE1=Tracy Byrd - Big love
TTITLE2=Sons of the San Joaquin - From Whence came the cowboy
TTITLE3=George Strait - I can still make Cayenne
TTITLE4=James T Horn - If dreams had wings
TTITLE5=Paul Jefferson - I might just make it
TTITLE6=Rhett Akins - Love you bakck
TTITLE7=Brooks and Dunn - Mama don't get dressed up for nothing
TTITLE8=Tim McGraw - Maybe we should just sleep on it
TTITLE9=Shelly - Mr. Right
TTITLE10=Wynonna - My angel is here
TTITLE11=Keith Stegall - My life
TTITLE12=Mike ward - Neon wishing well
TTITLE13=Kevin Sharp - Nobody knows
TTITLE14=Sky Kings - That just about says it all
TTITLE15=Vern Gosdin - The number
TTITLE16=Lee Roy Parnell - We all get lucky sometimes
TTITLE17=Lonestar - When cowboys didn't dance
TTITLE18=Wade Hayes - Where do I go to start all over
TTITLE19=C Lynne Garcia - Up a tree
TTITLE20=Willie - Large bus rider
EXTD=
EXTT0=
EXTT1=
EXTT2=
EXTT3=
EXTT4=
EXTT5=
EXTT6=
EXTT7=
EXTT8=
EXTT9=
EXTT10=
EXTT11=
EXTT12=
EXTT13=
EXTT14=
EXTT15=
EXTT16=
EXTT17=
EXTT18=
EXTT19=
EXTT20=
PLAYORDER=
